<svg width="158" height="117" viewBox="0 0 158 117" fill="none" xmlns="http://www.w3.org/2000/svg">
<path d="M84.9444 4.27551L85.2297 14.6047C85.336 18.4523 88.4323 21.5465 92.2825 21.6527L102.619 21.9378L92.2825 22.223C88.4323 22.3294 85.336 25.4234 85.2297 29.271L84.9444 39.6003L84.6589 29.271C84.5526 25.4234 81.4565 22.3294 77.6061 22.223L67.27 21.9378L77.6061 21.6527C81.4565 21.5465 84.5526 18.4523 84.6589 14.6047L84.9444 4.27551Z" fill="#484D56"/>
<path d="M84.9444 4.27551L85.2297 14.6047C85.336 18.4523 88.4323 21.5465 92.2825 21.6527L102.619 21.9378L92.2825 22.223C88.4323 22.3294 85.336 25.4234 85.2297 29.271L84.9444 39.6003L84.6589 29.271C84.5526 25.4234 81.4565 22.3294 77.6061 22.223L67.27 21.9378L77.6061 21.6527C81.4565 21.5465 84.5526 18.4523 84.6589 14.6047L84.9444 4.27551Z" fill="black" fill-opacity="0.2"/>
<path d="M60.0563 76.0063L60.3126 85.2815C60.4081 88.7365 63.1883 91.515 66.6457 91.6103L75.9271 91.8664L66.6457 92.1225C63.1883 92.218 60.4081 94.9963 60.3126 98.4513L60.0563 107.726L59.8 98.4513C59.7046 94.9963 56.9243 92.218 53.467 92.1225L44.1855 91.8664L53.467 91.6103C56.9243 91.515 59.7046 88.7365 59.8 85.2815L60.0563 76.0063Z" fill="#484D56"/>
<path d="M60.0563 76.0063L60.3126 85.2815C60.4081 88.7365 63.1883 91.515 66.6457 91.6103L75.9271 91.8664L66.6457 92.1225C63.1883 92.218 60.4081 94.9963 60.3126 98.4513L60.0563 107.726L59.8 98.4513C59.7046 94.9963 56.9243 92.218 53.467 92.1225L44.1855 91.8664L53.467 91.6103C56.9243 91.515 59.7046 88.7365 59.8 85.2815L60.0563 76.0063Z" fill="black" fill-opacity="0.2"/>
<path d="M144.449 34.6944C147.686 43.6592 143.367 54.4916 133.548 64.7973C123.745 75.0858 108.535 84.7576 90.2394 91.3537C71.9435 97.9497 54.0584 100.209 39.9404 98.5452C25.7983 96.8782 15.5542 91.2957 12.3178 82.331C9.08141 73.3661 13.3996 62.5338 23.2193 52.228C33.0224 41.9397 48.2314 32.2679 66.5274 25.6718C84.8235 19.0756 102.708 16.8161 116.827 18.4803C130.969 20.1472 141.213 25.7296 144.449 34.6944Z" stroke="#484D56" stroke-width="0.476532"/>
<path d="M144.449 34.6944C147.686 43.6592 143.367 54.4916 133.548 64.7973C123.745 75.0858 108.535 84.7576 90.2394 91.3537C71.9435 97.9497 54.0584 100.209 39.9404 98.5452C25.7983 96.8782 15.5542 91.2957 12.3178 82.331C9.08141 73.3661 13.3996 62.5338 23.2193 52.228C33.0224 41.9397 48.2314 32.2679 66.5274 25.6718C84.8235 19.0756 102.708 16.8161 116.827 18.4803C130.969 20.1472 141.213 25.7296 144.449 34.6944Z" stroke="black" stroke-opacity="0.2" stroke-width="0.476532"/>
</svg>
