<svg width="20" height="20" viewBox="0 0 20 20" fill="none" xmlns="http://www.w3.org/2000/svg">
<path d="M4 11.6504H17C17.7456 11.6504 18.3496 12.2544 18.3496 13V14C18.3496 14.7456 17.7456 15.3496 17 15.3496H4C3.25442 15.3496 2.65039 14.7456 2.65039 14V13C2.65039 12.2544 3.25442 11.6504 4 11.6504ZM4 4.65039H17C17.7456 4.65039 18.3496 5.25442 18.3496 6V7C18.3496 7.74558 17.7456 8.34961 17 8.34961H4C3.25442 8.34961 2.65039 7.74558 2.65039 7V6C2.65039 5.25442 3.25442 4.65039 4 4.65039Z" stroke="#0B0D12" stroke-width="1.3"/>
</svg>
